<svg width="367" height="136" viewBox="0 0 367 136" fill="none" xmlns="http://www.w3.org/2000/svg">
<rect x="0.5" y="0.5" width="366" height="135" rx="14.5" fill="#A1A3AB" fill-opacity="0.17" stroke="#A1A3AB"/>
<path d="M240.733 123H239.852C239.8 122.747 239.709 122.524 239.579 122.332C239.451 122.141 239.295 121.98 239.11 121.849C238.928 121.717 238.725 121.617 238.503 121.551C238.28 121.485 238.048 121.452 237.807 121.452C237.366 121.452 236.968 121.563 236.61 121.786C236.255 122.008 235.972 122.336 235.761 122.769C235.553 123.202 235.449 123.734 235.449 124.364C235.449 124.993 235.553 125.525 235.761 125.958C235.972 126.391 236.255 126.719 236.61 126.942C236.968 127.164 237.366 127.276 237.807 127.276C238.048 127.276 238.28 127.242 238.503 127.176C238.725 127.11 238.928 127.012 239.11 126.881C239.295 126.749 239.451 126.587 239.579 126.395C239.709 126.201 239.8 125.978 239.852 125.727H240.733C240.667 126.099 240.546 126.432 240.371 126.725C240.196 127.019 239.978 127.268 239.717 127.474C239.457 127.678 239.165 127.833 238.84 127.94C238.518 128.046 238.174 128.099 237.807 128.099C237.187 128.099 236.635 127.948 236.152 127.645C235.669 127.342 235.289 126.911 235.012 126.352C234.735 125.794 234.597 125.131 234.597 124.364C234.597 123.597 234.735 122.934 235.012 122.375C235.289 121.816 235.669 121.385 236.152 121.082C236.635 120.779 237.187 120.628 237.807 120.628C238.174 120.628 238.518 120.681 238.84 120.788C239.165 120.894 239.457 121.05 239.717 121.256C239.978 121.46 240.196 121.709 240.371 122.002C240.546 122.293 240.667 122.626 240.733 123ZM242.042 128V122.545H242.852V123.369H242.909C243.008 123.099 243.188 122.88 243.449 122.712C243.709 122.544 244.003 122.46 244.329 122.46C244.391 122.46 244.468 122.461 244.56 122.464C244.653 122.466 244.722 122.47 244.77 122.474V123.327C244.741 123.32 244.676 123.309 244.574 123.295C244.475 123.278 244.37 123.27 244.258 123.27C243.993 123.27 243.756 123.326 243.548 123.437C243.342 123.546 243.179 123.697 243.058 123.891C242.94 124.083 242.881 124.302 242.881 124.548V128H242.042ZM247.884 128.114C247.358 128.114 246.905 127.998 246.524 127.766C246.145 127.531 245.853 127.205 245.647 126.786C245.443 126.364 245.341 125.874 245.341 125.315C245.341 124.757 245.443 124.264 245.647 123.838C245.853 123.41 246.139 123.076 246.506 122.837C246.876 122.595 247.306 122.474 247.799 122.474C248.083 122.474 248.363 122.522 248.64 122.616C248.917 122.711 249.17 122.865 249.397 123.078C249.624 123.289 249.805 123.568 249.94 123.916C250.075 124.264 250.143 124.693 250.143 125.202V125.557H245.938V124.832H249.29C249.29 124.525 249.229 124.25 249.106 124.009C248.985 123.767 248.812 123.576 248.587 123.437C248.365 123.297 248.102 123.227 247.799 123.227C247.465 123.227 247.176 123.31 246.932 123.476C246.691 123.639 246.505 123.852 246.375 124.115C246.245 124.378 246.18 124.66 246.18 124.96V125.443C246.18 125.855 246.251 126.204 246.393 126.491C246.537 126.775 246.737 126.991 246.993 127.141C247.248 127.287 247.546 127.361 247.884 127.361C248.104 127.361 248.303 127.33 248.481 127.268C248.661 127.205 248.816 127.11 248.946 126.984C249.076 126.857 249.177 126.698 249.248 126.509L250.057 126.736C249.972 127.01 249.829 127.252 249.628 127.46C249.426 127.666 249.178 127.827 248.882 127.943C248.586 128.057 248.253 128.114 247.884 128.114ZM253.023 128.128C252.677 128.128 252.363 128.063 252.081 127.933C251.8 127.8 251.576 127.609 251.41 127.361C251.245 127.11 251.162 126.807 251.162 126.452C251.162 126.139 251.223 125.886 251.346 125.692C251.47 125.495 251.634 125.341 251.84 125.23C252.046 125.119 252.273 125.036 252.522 124.982C252.773 124.925 253.025 124.88 253.278 124.847C253.61 124.804 253.878 124.772 254.084 124.751C254.293 124.727 254.444 124.688 254.539 124.634C254.636 124.579 254.684 124.484 254.684 124.349V124.321C254.684 123.971 254.589 123.698 254.397 123.504C254.207 123.31 253.92 123.213 253.534 123.213C253.134 123.213 252.82 123.301 252.593 123.476C252.366 123.651 252.206 123.838 252.113 124.037L251.318 123.753C251.46 123.421 251.649 123.163 251.886 122.979C252.125 122.792 252.386 122.661 252.667 122.588C252.952 122.512 253.231 122.474 253.506 122.474C253.681 122.474 253.882 122.496 254.109 122.538C254.339 122.579 254.56 122.663 254.773 122.79C254.989 122.918 255.167 123.111 255.309 123.369C255.452 123.627 255.523 123.973 255.523 124.406V128H254.684V127.261H254.642C254.585 127.38 254.49 127.506 254.358 127.641C254.225 127.776 254.049 127.891 253.829 127.986C253.608 128.08 253.34 128.128 253.023 128.128ZM253.15 127.375C253.482 127.375 253.761 127.31 253.988 127.18C254.218 127.049 254.391 126.881 254.507 126.675C254.625 126.469 254.684 126.253 254.684 126.026V125.259C254.649 125.301 254.571 125.34 254.45 125.376C254.332 125.409 254.194 125.438 254.038 125.464C253.884 125.488 253.734 125.509 253.587 125.528C253.443 125.545 253.326 125.559 253.236 125.571C253.018 125.599 252.814 125.646 252.625 125.71C252.438 125.771 252.286 125.865 252.17 125.99C252.057 126.113 252 126.281 252 126.494C252 126.786 252.108 127.006 252.323 127.155C252.541 127.302 252.817 127.375 253.15 127.375ZM259.424 122.545V123.256H256.598V122.545H259.424ZM257.422 121.239H258.26V126.438C258.26 126.674 258.294 126.852 258.363 126.97C258.434 127.086 258.524 127.164 258.632 127.205C258.744 127.242 258.861 127.261 258.984 127.261C259.076 127.261 259.152 127.257 259.211 127.247C259.27 127.235 259.318 127.226 259.353 127.219L259.524 127.972C259.467 127.993 259.388 128.014 259.286 128.036C259.184 128.059 259.055 128.071 258.899 128.071C258.662 128.071 258.43 128.02 258.203 127.918C257.978 127.817 257.791 127.661 257.642 127.453C257.495 127.245 257.422 126.982 257.422 126.665V121.239ZM262.913 128.114C262.388 128.114 261.934 127.998 261.553 127.766C261.174 127.531 260.882 127.205 260.676 126.786C260.473 126.364 260.371 125.874 260.371 125.315C260.371 124.757 260.473 124.264 260.676 123.838C260.882 123.41 261.169 123.076 261.536 122.837C261.905 122.595 262.336 122.474 262.828 122.474C263.112 122.474 263.393 122.522 263.67 122.616C263.947 122.711 264.199 122.865 264.426 123.078C264.653 123.289 264.835 123.568 264.969 123.916C265.104 124.264 265.172 124.693 265.172 125.202V125.557H260.967V124.832H264.32C264.32 124.525 264.258 124.25 264.135 124.009C264.014 123.767 263.841 123.576 263.616 123.437C263.394 123.297 263.131 123.227 262.828 123.227C262.494 123.227 262.205 123.31 261.962 123.476C261.72 123.639 261.534 123.852 261.404 124.115C261.274 124.378 261.209 124.66 261.209 124.96V125.443C261.209 125.855 261.28 126.204 261.422 126.491C261.566 126.775 261.766 126.991 262.022 127.141C262.278 127.287 262.575 127.361 262.913 127.361C263.134 127.361 263.332 127.33 263.51 127.268C263.69 127.205 263.845 127.11 263.975 126.984C264.105 126.857 264.206 126.698 264.277 126.509L265.087 126.736C265.001 127.01 264.858 127.252 264.657 127.46C264.456 127.666 264.207 127.827 263.911 127.943C263.615 128.057 263.283 128.114 262.913 128.114ZM268.506 128.114C268.052 128.114 267.651 127.999 267.303 127.769C266.955 127.537 266.682 127.21 266.486 126.789C266.289 126.365 266.191 125.865 266.191 125.287C266.191 124.714 266.289 124.217 266.486 123.795C266.682 123.374 266.956 123.049 267.306 122.819C267.656 122.589 268.061 122.474 268.521 122.474C268.876 122.474 269.156 122.534 269.362 122.652C269.571 122.768 269.729 122.901 269.838 123.05C269.949 123.196 270.036 123.317 270.097 123.412H270.168V120.727H271.006V128H270.197V127.162H270.097C270.036 127.261 269.948 127.387 269.835 127.538C269.721 127.687 269.559 127.821 269.348 127.94C269.137 128.056 268.857 128.114 268.506 128.114ZM268.62 127.361C268.956 127.361 269.24 127.273 269.472 127.098C269.704 126.92 269.881 126.675 270.001 126.363C270.122 126.048 270.183 125.685 270.183 125.273C270.183 124.866 270.123 124.509 270.005 124.204C269.887 123.896 269.711 123.657 269.479 123.487C269.247 123.314 268.961 123.227 268.62 123.227C268.265 123.227 267.969 123.318 267.732 123.501C267.498 123.681 267.321 123.926 267.203 124.236C267.087 124.544 267.029 124.889 267.029 125.273C267.029 125.661 267.088 126.014 267.207 126.331C267.327 126.646 267.505 126.897 267.739 127.084C267.976 127.268 268.27 127.361 268.62 127.361ZM277.686 128.114C277.194 128.114 276.762 127.996 276.39 127.762C276.021 127.528 275.732 127.2 275.523 126.778C275.317 126.357 275.214 125.865 275.214 125.301C275.214 124.733 275.317 124.237 275.523 123.813C275.732 123.389 276.021 123.06 276.39 122.826C276.762 122.592 277.194 122.474 277.686 122.474C278.179 122.474 278.609 122.592 278.979 122.826C279.35 123.06 279.639 123.389 279.845 123.813C280.054 124.237 280.158 124.733 280.158 125.301C280.158 125.865 280.054 126.357 279.845 126.778C279.639 127.2 279.35 127.528 278.979 127.762C278.609 127.996 278.179 128.114 277.686 128.114ZM277.686 127.361C278.06 127.361 278.368 127.265 278.609 127.073C278.851 126.881 279.03 126.629 279.146 126.317C279.262 126.004 279.32 125.666 279.32 125.301C279.32 124.937 279.262 124.597 279.146 124.282C279.03 123.967 278.851 123.713 278.609 123.518C278.368 123.324 278.06 123.227 277.686 123.227C277.312 123.227 277.004 123.324 276.763 123.518C276.521 123.713 276.343 123.967 276.227 124.282C276.111 124.597 276.053 124.937 276.053 125.301C276.053 125.666 276.111 126.004 276.227 126.317C276.343 126.629 276.521 126.881 276.763 127.073C277.004 127.265 277.312 127.361 277.686 127.361ZM282.275 124.719V128H281.437V122.545H282.247V123.398H282.318C282.445 123.121 282.64 122.898 282.9 122.73C283.16 122.56 283.497 122.474 283.909 122.474C284.278 122.474 284.601 122.55 284.878 122.702C285.155 122.851 285.37 123.078 285.524 123.384C285.678 123.687 285.755 124.07 285.755 124.534V128H284.917V124.591C284.917 124.162 284.806 123.829 284.583 123.589C284.361 123.348 284.055 123.227 283.667 123.227C283.4 123.227 283.16 123.285 282.95 123.401C282.741 123.517 282.577 123.687 282.456 123.909C282.335 124.132 282.275 124.402 282.275 124.719ZM287.897 128.057C287.722 128.057 287.572 127.994 287.446 127.869C287.321 127.743 287.258 127.593 287.258 127.418C287.258 127.242 287.321 127.092 287.446 126.967C287.572 126.841 287.722 126.778 287.897 126.778C288.073 126.778 288.223 126.841 288.348 126.967C288.474 127.092 288.537 127.242 288.537 127.418C288.537 127.534 288.507 127.64 288.448 127.737C288.391 127.834 288.314 127.912 288.217 127.972C288.122 128.028 288.016 128.057 287.897 128.057ZM287.897 124.009C287.722 124.009 287.572 123.946 287.446 123.82C287.321 123.695 287.258 123.545 287.258 123.369C287.258 123.194 287.321 123.044 287.446 122.918C287.572 122.793 287.722 122.73 287.897 122.73C288.073 122.73 288.223 122.793 288.348 122.918C288.474 123.044 288.537 123.194 288.537 123.369C288.537 123.485 288.507 123.592 288.448 123.689C288.391 123.786 288.314 123.864 288.217 123.923C288.122 123.98 288.016 124.009 287.897 124.009ZM292.839 128V127.361L295.239 124.733C295.521 124.425 295.753 124.158 295.935 123.93C296.118 123.701 296.253 123.485 296.34 123.284C296.43 123.08 296.475 122.867 296.475 122.645C296.475 122.389 296.414 122.168 296.29 121.981C296.17 121.794 296.004 121.649 295.793 121.548C295.583 121.446 295.346 121.395 295.083 121.395C294.804 121.395 294.56 121.453 294.352 121.569C294.146 121.683 293.986 121.842 293.872 122.048C293.761 122.254 293.705 122.496 293.705 122.773H292.867C292.867 122.347 292.965 121.973 293.162 121.651C293.358 121.329 293.626 121.078 293.964 120.898C294.305 120.718 294.688 120.628 295.112 120.628C295.538 120.628 295.915 120.718 296.244 120.898C296.573 121.078 296.831 121.32 297.018 121.626C297.205 121.931 297.299 122.271 297.299 122.645C297.299 122.912 297.25 123.174 297.153 123.43C297.059 123.683 296.893 123.966 296.656 124.278C296.422 124.589 296.096 124.967 295.68 125.415L294.046 127.162V127.219H297.427V128H292.839ZM301.266 128.099C300.731 128.099 300.275 127.954 299.898 127.663C299.522 127.369 299.234 126.944 299.036 126.388C298.837 125.829 298.737 125.154 298.737 124.364C298.737 123.578 298.837 122.906 299.036 122.35C299.237 121.791 299.526 121.365 299.902 121.072C300.281 120.776 300.735 120.628 301.266 120.628C301.796 120.628 302.249 120.776 302.626 121.072C303.004 121.365 303.293 121.791 303.492 122.35C303.693 122.906 303.794 123.578 303.794 124.364C303.794 125.154 303.695 125.829 303.496 126.388C303.297 126.944 303.009 127.369 302.633 127.663C302.256 127.954 301.801 128.099 301.266 128.099ZM301.266 127.318C301.796 127.318 302.208 127.062 302.501 126.551C302.795 126.04 302.942 125.311 302.942 124.364C302.942 123.734 302.874 123.198 302.739 122.755C302.607 122.312 302.415 121.975 302.164 121.743C301.915 121.511 301.616 121.395 301.266 121.395C300.74 121.395 300.329 121.654 300.033 122.173C299.737 122.689 299.589 123.419 299.589 124.364C299.589 124.993 299.656 125.528 299.788 125.969C299.921 126.409 300.112 126.744 300.36 126.974C300.611 127.203 300.913 127.318 301.266 127.318ZM307.729 120.386L305.385 129.094H304.618L306.962 120.386H307.729ZM311.08 128.099C310.545 128.099 310.089 127.954 309.713 127.663C309.336 127.369 309.049 126.944 308.85 126.388C308.651 125.829 308.552 125.154 308.552 124.364C308.552 123.578 308.651 122.906 308.85 122.35C309.051 121.791 309.34 121.365 309.716 121.072C310.095 120.776 310.55 120.628 311.08 120.628C311.61 120.628 312.064 120.776 312.44 121.072C312.819 121.365 313.108 121.791 313.307 122.35C313.508 122.906 313.608 123.578 313.608 124.364C313.608 125.154 313.509 125.829 313.31 126.388C313.111 126.944 312.824 127.369 312.447 127.663C312.071 127.954 311.615 128.099 311.08 128.099ZM311.08 127.318C311.61 127.318 312.022 127.062 312.316 126.551C312.609 126.04 312.756 125.311 312.756 124.364C312.756 123.734 312.689 123.198 312.554 122.755C312.421 122.312 312.229 121.975 311.979 121.743C311.73 121.511 311.43 121.395 311.08 121.395C310.555 121.395 310.144 121.654 309.848 122.173C309.552 122.689 309.404 123.419 309.404 124.364C309.404 124.993 309.47 125.528 309.603 125.969C309.735 126.409 309.926 126.744 310.175 126.974C310.425 127.203 310.727 127.318 311.08 127.318ZM317.373 128.099C317.074 128.095 316.776 128.038 316.478 127.929C316.18 127.82 315.907 127.637 315.661 127.379C315.415 127.118 315.217 126.767 315.068 126.324C314.919 125.879 314.844 125.32 314.844 124.648C314.844 124.004 314.905 123.433 315.025 122.936C315.146 122.437 315.321 122.016 315.551 121.675C315.781 121.332 316.058 121.072 316.382 120.894C316.709 120.717 317.077 120.628 317.486 120.628C317.894 120.628 318.256 120.71 318.573 120.873C318.893 121.034 319.153 121.259 319.354 121.548C319.555 121.836 319.686 122.169 319.745 122.545H318.878C318.798 122.219 318.642 121.948 318.41 121.732C318.178 121.517 317.87 121.409 317.486 121.409C316.923 121.409 316.479 121.654 316.155 122.144C315.833 122.634 315.671 123.322 315.668 124.207H315.725C315.858 124.006 316.015 123.835 316.197 123.692C316.382 123.548 316.586 123.437 316.808 123.359C317.031 123.281 317.266 123.241 317.515 123.241C317.931 123.241 318.313 123.346 318.658 123.554C319.004 123.76 319.281 124.045 319.489 124.41C319.698 124.772 319.802 125.188 319.802 125.656C319.802 126.106 319.701 126.518 319.5 126.892C319.299 127.264 319.016 127.56 318.651 127.78C318.289 127.998 317.863 128.104 317.373 128.099ZM317.373 127.318C317.671 127.318 317.939 127.244 318.175 127.094C318.414 126.945 318.603 126.745 318.74 126.494C318.88 126.243 318.949 125.964 318.949 125.656C318.949 125.356 318.882 125.082 318.747 124.836C318.614 124.587 318.431 124.39 318.197 124.243C317.965 124.096 317.699 124.023 317.401 124.023C317.176 124.023 316.967 124.068 316.773 124.158C316.578 124.245 316.408 124.366 316.261 124.52C316.117 124.674 316.003 124.85 315.92 125.049C315.837 125.246 315.796 125.453 315.796 125.67C315.796 125.959 315.863 126.229 315.998 126.48C316.136 126.731 316.323 126.933 316.559 127.087C316.799 127.241 317.07 127.318 317.373 127.318ZM323.783 120.386L321.44 129.094H320.673L323.016 120.386H323.783ZM324.763 128V127.361L327.163 124.733C327.445 124.425 327.677 124.158 327.859 123.93C328.041 123.701 328.176 123.485 328.264 123.284C328.354 123.08 328.399 122.867 328.399 122.645C328.399 122.389 328.337 122.168 328.214 121.981C328.094 121.794 327.928 121.649 327.717 121.548C327.506 121.446 327.27 121.395 327.007 121.395C326.728 121.395 326.484 121.453 326.275 121.569C326.069 121.683 325.91 121.842 325.796 122.048C325.685 122.254 325.629 122.496 325.629 122.773H324.791C324.791 122.347 324.889 121.973 325.086 121.651C325.282 121.329 325.55 121.078 325.888 120.898C326.229 120.718 326.612 120.628 327.035 120.628C327.461 120.628 327.839 120.718 328.168 120.898C328.497 121.078 328.755 121.32 328.942 121.626C329.129 121.931 329.223 122.271 329.223 122.645C329.223 122.912 329.174 123.174 329.077 123.43C328.983 123.683 328.817 123.966 328.58 124.278C328.346 124.589 328.02 124.967 327.604 125.415L325.97 127.162V127.219H329.351V128H324.763ZM333.189 128.099C332.654 128.099 332.199 127.954 331.822 127.663C331.446 127.369 331.158 126.944 330.959 126.388C330.76 125.829 330.661 125.154 330.661 124.364C330.661 123.578 330.76 122.906 330.959 122.35C331.161 121.791 331.449 121.365 331.826 121.072C332.205 120.776 332.659 120.628 333.189 120.628C333.72 120.628 334.173 120.776 334.55 121.072C334.928 121.365 335.217 121.791 335.416 122.35C335.617 122.906 335.718 123.578 335.718 124.364C335.718 125.154 335.618 125.829 335.42 126.388C335.221 126.944 334.933 127.369 334.557 127.663C334.18 127.954 333.724 128.099 333.189 128.099ZM333.189 127.318C333.72 127.318 334.132 127.062 334.425 126.551C334.719 126.04 334.866 125.311 334.866 124.364C334.866 123.734 334.798 123.198 334.663 122.755C334.531 122.312 334.339 121.975 334.088 121.743C333.839 121.511 333.54 121.395 333.189 121.395C332.664 121.395 332.253 121.654 331.957 122.173C331.661 122.689 331.513 123.419 331.513 124.364C331.513 124.993 331.58 125.528 331.712 125.969C331.845 126.409 332.035 126.744 332.284 126.974C332.535 127.203 332.837 127.318 333.189 127.318ZM337.067 128V127.361L339.468 124.733C339.75 124.425 339.982 124.158 340.164 123.93C340.346 123.701 340.481 123.485 340.569 123.284C340.659 123.08 340.704 122.867 340.704 122.645C340.704 122.389 340.642 122.168 340.519 121.981C340.398 121.794 340.233 121.649 340.022 121.548C339.811 121.446 339.574 121.395 339.312 121.395C339.032 121.395 338.788 121.453 338.58 121.569C338.374 121.683 338.214 121.842 338.101 122.048C337.989 122.254 337.934 122.496 337.934 122.773H337.096C337.096 122.347 337.194 121.973 337.39 121.651C337.587 121.329 337.854 121.078 338.193 120.898C338.534 120.718 338.916 120.628 339.34 120.628C339.766 120.628 340.144 120.718 340.473 120.898C340.802 121.078 341.06 121.32 341.247 121.626C341.434 121.931 341.528 122.271 341.528 122.645C341.528 122.912 341.479 123.174 341.382 123.43C341.287 123.683 341.122 123.966 340.885 124.278C340.65 124.589 340.325 124.967 339.908 125.415L338.275 127.162V127.219H341.655V128H337.067ZM345.579 128.099C345.111 128.099 344.693 128.019 344.326 127.858C343.961 127.697 343.671 127.473 343.456 127.187C343.243 126.898 343.127 126.563 343.108 126.182H344.003C344.022 126.416 344.102 126.619 344.244 126.789C344.386 126.957 344.572 127.087 344.802 127.18C345.031 127.272 345.286 127.318 345.565 127.318C345.878 127.318 346.155 127.264 346.396 127.155C346.638 127.046 346.827 126.894 346.964 126.7C347.102 126.506 347.17 126.281 347.17 126.026C347.17 125.758 347.104 125.522 346.971 125.319C346.839 125.113 346.645 124.952 346.389 124.836C346.133 124.72 345.821 124.662 345.452 124.662H344.869V123.881H345.452C345.74 123.881 345.994 123.829 346.211 123.724C346.432 123.62 346.603 123.473 346.726 123.284C346.852 123.095 346.915 122.872 346.915 122.616C346.915 122.37 346.86 122.156 346.751 121.974C346.642 121.791 346.488 121.649 346.29 121.548C346.093 121.446 345.861 121.395 345.594 121.395C345.343 121.395 345.106 121.441 344.883 121.533C344.663 121.623 344.483 121.755 344.344 121.928C344.204 122.098 344.128 122.304 344.116 122.545H343.264C343.278 122.164 343.393 121.83 343.608 121.544C343.824 121.255 344.106 121.03 344.454 120.869C344.804 120.708 345.189 120.628 345.608 120.628C346.058 120.628 346.443 120.719 346.765 120.901C347.087 121.081 347.335 121.319 347.508 121.615C347.68 121.911 347.767 122.231 347.767 122.574C347.767 122.983 347.659 123.333 347.444 123.621C347.231 123.91 346.941 124.11 346.574 124.222V124.278C347.033 124.354 347.392 124.549 347.65 124.864C347.908 125.177 348.037 125.564 348.037 126.026C348.037 126.421 347.929 126.776 347.714 127.091C347.501 127.403 347.209 127.65 346.84 127.83C346.471 128.009 346.05 128.099 345.579 128.099Z" fill="#A1A3AB"/>
</svg>
