<svg width="15" height="16" viewBox="0 0 15 16" fill="none" xmlns="http://www.w3.org/2000/svg">
<path d="M7.5 0.529785C3.375 0.529785 0 3.89729 0 8.04479C0 11.7948 2.745 14.9073 6.33 15.4698V10.2198H4.425V8.04479H6.33V6.38729C6.33 4.50479 7.4475 3.46979 9.165 3.46979C9.9825 3.46979 10.8375 3.61229 10.8375 3.61229V5.46479H9.8925C8.9625 5.46479 8.67 6.04229 8.67 6.63479V8.04479H10.755L10.4175 10.2198H8.67V15.4698C10.4373 15.1907 12.0467 14.2889 13.2074 12.9273C14.3682 11.5657 15.004 9.83402 15 8.04479C15 3.89729 11.625 0.529785 7.5 0.529785Z" fill="#EFEFEF"/>
</svg>
