<svg width="17" height="13" viewBox="0 0 17 13" fill="none" xmlns="http://www.w3.org/2000/svg">
<path d="M16.345 1.49976C15.7675 1.76226 15.145 1.93476 14.5 2.01726C15.16 1.61976 15.67 0.989756 15.91 0.232256C15.2875 0.607256 14.5975 0.869756 13.87 1.01976C13.2775 0.374756 12.445 -0.000244141 11.5 -0.000244141C9.73753 -0.000244141 8.29753 1.43976 8.29753 3.21726C8.29753 3.47226 8.32753 3.71976 8.38003 3.95226C5.71003 3.81726 3.33253 2.53476 1.75003 0.592256C1.47253 1.06476 1.31503 1.61976 1.31503 2.20476C1.31503 3.32226 1.87753 4.31226 2.74753 4.87476C2.21503 4.87476 1.72003 4.72476 1.28503 4.49976V4.52226C1.28503 6.08226 2.39503 7.38726 3.86503 7.67976C3.39307 7.80891 2.8976 7.82688 2.41753 7.73226C2.62123 8.37162 3.02018 8.93106 3.55829 9.33195C4.0964 9.73285 4.74661 9.95502 5.41753 9.96726C4.28025 10.8676 2.87053 11.3542 1.42003 11.3473C1.16503 11.3473 0.910029 11.3323 0.655029 11.3023C2.08003 12.2173 3.77503 12.7498 5.59003 12.7498C11.5 12.7498 14.7475 7.84476 14.7475 3.59226C14.7475 3.44976 14.7475 3.31476 14.74 3.17226C15.37 2.72226 15.91 2.15226 16.345 1.49976Z" fill="#EFEFEF"/>
</svg>
